Coordinates
version=1
nRows=19
nColumns=24
inDegrees=yes

Units are S.I. units (second, meters, Newtons, ...)
Angles are in degrees.

endheader
time	pelvis_tilt	pelvis_list	pelvis_rotation	pelvis_tx	pelvis_ty	pelvis_tz	hip_flexion_r	hip_adduction_r	hip_rotation_r	knee_angle_r	ankle_angle_r	subtalar_angle_r	mtp_angle_r	hip_flexion_l	hip_adduction_l	hip_rotation_l	knee_angle_l	ankle_angle_l	subtalar_angle_l	mtp_angle_l	lumbar_extension	lumbar_bending	lumbar_rotation
      2.71500000	      0.57799002	      3.75510491	      0.88225132	     -1.51806644	      0.90943018	      0.18979824	     31.40608232	     -2.39873233	     -2.10986969	    -17.31445142	     11.34891478	     -5.14329521	      0.00000000	    -14.28357924	      8.58348333	      8.94954939	    -19.51999866	     26.32773172	    -10.96262934	      0.00000000	    -14.82993894	     -3.63707630	    -14.90931623
      2.72000000	      0.57610832	      3.46138367	      0.84446555	     -1.50981292	      0.90851904	      0.19054757	     31.43941519	     -2.00224803	     -1.91277348	    -18.18254544	     10.75491622	     -5.68294311	      0.00000000	    -14.17866391	      8.17434979	      8.14794673	    -20.70302077	     26.27483820	    -10.00911742	      0.00000000	    -14.73878543	     -3.28597117	    -14.85896973
      2.72500000	      0.53535225	      3.12253820	      0.74124425	     -1.50151347	      0.90762665	      0.19142897	     31.52258723	     -1.52657887	     -1.71980274	    -19.06945003	     10.08870363	     -6.19781013	      0.00000000	    -13.96922086	      7.70881336	      7.17106182	    -21.98323749	     26.15968455	     -8.98923692	      0.00000000	    -14.58963928	     -2.90033402	    -14.74014706
      2.73000000	      0.48062470	      2.76166972	      0.62946600	     -1.49327545	      0.90686012	      0.19236829	     31.61006055	     -1.02047551	     -1.50569492	    -19.93730482	      9.33376975	     -6.68784516	      0.00000000	    -13.66796831	      7.19744839	      6.14311766	    -23.38458679	     25.92937772	     -7.91616926	      0.00000000	    -14.43836538	     -2.49540294	    -14.59839072
      2.73500000	      0.40515919	      2.35763794	      0.49480334	     -1.48502983	      0.90619356	      0.19334814	     31.71896502	     -0.46252078	     -1.31106407	    -20.80751342	      8.55292349	     -7.12516710	      0.00000000	    -13.28218598	      6.62615940	      5.07859449	    -24.88622572	     25.56851171	     -6.85837509	      0.00000000	    -14.26174478	     -2.04241882	    -14.41882373
      2.74000000	      0.31503841	      1.92600323	      0.34985642	     -1.47680696	      0.90562632	      0.19437317	     31.84727803	      0.13218039	     -1.10651166	    -21.69057925	      7.77363355	     -7.53990271	      0.00000000	    -12.81004525	      6.00116053	      3.98488001	    -26.50046713	     25.07431122	     -5.79895266	      0.00000000	    -14.07403557	     -1.56338523	    -14.22358738
      2.74500000	      0.21127046	      1.46893230	      0.19446362	     -1.46859614	      0.90515282	      0.19541998	     31.99366941	      0.75985317	     -0.89818976	    -22.58864910	      7.01457803	     -7.93455572	      0.00000000	    -12.25771527	      5.32765305	      2.89020970	    -28.21816582	     24.42611761	     -4.78069060	      0.00000000	    -13.87255016	     -1.05181198	    -14.01504783
      2.75000000	      0.10029490	      1.00561080	      0.03301307	     -1.46043830	      0.90472957	      0.19651469	     32.15567825	      1.41716277	     -0.60232832	    -23.51378928	      6.28014542	     -8.40670389	      0.00000000	    -11.62547082	      4.62251664	      1.81575348	    -30.04875013	     23.64648151	     -3.80814080	      0.00000000	    -13.67717392	     -0.53946116	    -13.80765715
      2.75500000	     -0.01707362	      0.52743782	     -0.13477072	     -1.45224023	      0.90441083	      0.19760811	     32.31328058	      2.08743770	     -0.34453274	    -24.43476028	      5.60505503	     -8.81873742	      0.00000000	    -10.93656918	      3.88318096	      0.79624915	    -31.95358002	     22.67007952	     -2.91012991	      0.00000000	    -13.46735738	     -0.00761787	    -13.59688499
      2.76000000	     -0.12886428	      0.02514180	     -0.29860615	     -1.44392343	      0.90419763	      0.19863926	     32.43945808	      2.76055416	     -0.18646550	    -25.33498818	      5.06002401	     -9.11876732	      0.00000000	    -10.21767163	      3.10346180	     -0.16156108	    -33.90845605	     21.48764378	     -2.12039348	      0.00000000	    -13.24122699	      0.55952149	    -13.36203217
      2.76500000	     -0.25215311	     -0.42714720	     -0.46153589	     -1.43580193	      0.90394964	      0.19978319	     32.57758330	      3.43355751	      0.17052661	    -26.22794139	      4.48893823	     -9.67791437	      0.00000000	     -9.39991328	      2.34832655	     -1.05312456	    -35.97753052	     20.20654627	     -1.39501747	      0.00000000	    -13.03989734	      1.05384274	    -13.19282279
      2.77000000	     -0.35296338	     -0.90956483	     -0.62000320	     -1.42757472	      0.90378514	      0.20086071	     32.65921038	      4.10365583	      0.37660953	    -27.08414688	      4.10755376	    -10.06136176	      0.00000000	     -8.57696692	      1.55528096	     -1.86293130	    -38.07578235	     18.75832831	     -0.81696826	      0.00000000	    -12.84821215	      1.59049319	    -12.99739717
      2.77500000	     -0.44483281	     -1.39809175	     -0.78216172	     -1.41937646	      0.90365389	      0.20190450	     32.69768885	      4.77554453	      0.56021917	    -27.88598866	      3.84099712	    -10.42219649	      0.00000000	     -7.72012764	      0.75879756	     -2.57555280	    -40.21185619	     17.18802784	     -0.40832108	      0.00000000	    -12.67563006	      2.14417354	    -12.79205694
      2.78000000	     -0.53948920	     -1.86255340	     -0.94668585	     -1.41118146	      0.90355642	      0.20301976	     32.69224225	      5.43339889	      0.73828359	    -28.61057786	      3.69050158	    -10.82597615	      0.00000000	     -6.82265972	     -0.02976280	     -3.23347439	    -42.36279897	     15.49865172	     -0.11528794	      0.00000000	    -12.49721178	      2.65267495	    -12.62135510
      2.78500000	     -0.61390064	     -2.34249977	     -1.11409424	     -1.40305935	      0.90350751	      0.20407750	     32.63159494	      6.09206172	      0.87015653	    -29.28036104	      3.68281856	    -11.11773570	      0.00000000	     -5.91129240	     -0.81281058	     -3.77457387	    -44.51869307	     13.73659443	     -0.05000857	      0.00000000	    -12.36242384	      3.18589490	    -12.41392044
      2.79000000	     -0.69062620	     -2.81104378	     -1.29010103	     -1.39496509	      0.90348813	      0.20517236	     32.52475939	      6.74323654	      0.97687062	    -29.86866313	      3.80949690	    -11.39753316	      0.00000000	     -4.96633996	     -1.58576967	     -4.26420563	    -46.66482219	     11.92258879	     -0.14486209	      0.00000000	    -12.22868127	      3.69702251	    -12.21645873
      2.79500000	     -0.80865014	     -3.26851563	     -1.48196303	     -1.38693555	      0.90340949	      0.20636189	     32.42277539	      7.40091667	      1.08765398	    -30.38941363	      4.05053630	    -11.69982277	      0.00000000	     -3.94089128	     -2.35930188	     -4.73166745	    -48.80884553	     10.12171808	     -0.38843820	      0.00000000	    -12.05332779	      4.18110831	    -12.05564339
      2.80000000	     -0.81198767	     -3.73213855	     -1.67868329	     -1.37893393	      0.90356294	      0.20744423	     32.15075627	      8.03960090	      1.14091169	    -30.84278264	      4.48987069	    -11.79038157	      0.00000000	     -3.03513058	     -3.09605920	     -5.10767346	    -50.87437671	      8.28036952	     -0.91771941	      0.00000000	    -12.02964325	      4.67523425	    -11.84543610
      2.80500000	     -0.98853125	     -4.18594218	     -1.89503591	     -1.37115237	      0.90350566	      0.20859197	     32.04341616	      8.69143384	      1.21437169	    -31.22760249	      4.82064223	    -12.03746399	      0.00000000	     -1.87749447	     -3.82580448	     -5.42509617	    -52.97360681	      6.52929146	     -1.55661182	      0.00000000	    -11.83881778	      5.16243457	    -11.59928905
